<?xml version="1.0" encoding="UTF-8"?>
<svg version="1.1" viewBox="0 0 16 16" xmlns="http://www.w3.org/2000/svg">
	<rect width="16" height="16" fill="#00006b" fill-rule="evenodd" style="paint-order:stroke fill markers"/>
	<path d="m8.02218543 3.44312003c0-0.10083126-0.07573185-0.19045904-0.1839202-0.19045904-0.10818834 0-0.14064485 0.06722084-0.19473903 0.17925557l-3.88396173 8.34658754-1.64446292-3.73075657c-0.03245651-0.07842431-0.05409418-0.13444168-0.11900719-0.13444168-0.02163767 0-0.04327534 0-0.12982602 0.06722084l-0.908782131 0.71702229c-0.097369515 0.08962778-0.108188348 0.10083126-0.108188348 0.13444168 0 0.06722084 0.032456505 0.10083126 0.097369516 0.10083126 0.021637673 0 0.043275338 0 0.119007183-0.06722084l0.48684757-0.36971462 1.81756427 4.13408164c0.05409417 0.1344417 0.07573185 0.1456452 0.17310136 0.1456452 0.15146369 0 0.16228253-0.0336105 0.22719554-0.1792557l4.19770795-8.99638894c0.04327534-0.10083126 0.05409418-0.11203474 0.05409418-0.15684863zm6.87518247-4.7803e-4h-7.0542265z" fill="#f00" stroke="#f00" stroke-miterlimit="10" stroke-width=".687879"/>
	<text transform="matrix(1.33333333,0,0,1.33333333,391.261333,1132.94933)" xml:space="preserve"><tspan x="0" y="0" fill="#000000" font-family="'Latin Modern Roman'" font-size="9.9626px">1</tspan></text>
	<path d="m7.89994011 3.42092224h7.05422649" fill="none" stroke="#f00" stroke-linecap="round" stroke-width="1.08095"/>
	<path transform="scale(.982684054 1.01762107)" d="m13.6942646 12.4031403-1.2175487-3.26934391c0.7440575-0.169104 1.9052383-0.59750078 2.2096255-1.99542714 0.4734912-2.22089912-1.9728799-2.22089912-2.4801919-2.22089912h-2.70566393c-0.40584959 0-0.57495358 0.12400959-0.66514238 0.54113278l-1.43174715 6.74161259c-0.0789152 0.4058496 0.0112736 0.5411328 0.42839678 0.5411328h0.54113278c0.42839679 0 0.57495359-0.1465568 0.65386878-0.5411328l0.63132158-2.96495672h1.25136954l1.1611808 3.23552312c0.1014624 0.2705664 0.225472 0.2705664 0.4734912 0.2705664h0.6651423c0.225472 0 0.4171232 0 0.4847648-0.338208zm-0.5862272-5.25349745c-0.1352831 0.66514238-0.4283967 1.27391676-1.8150495 1.27391676h-1.46556794l0.54113274-2.53655992h1.465568c1.3077375 0 1.4317471 0.51858559 1.2739167 1.26264316z" fill="#f00" stroke-width=".704606" aria-label="R"/>
	<desc>www.sqrt.ch</desc>
</svg>
